<svg fill="none" height="35" viewBox="0 0 138 35" width="138" xmlns="http://www.w3.org/2000/svg"><g fill="#000" opacity=".4"><path d="m1.0582 34.2962c-.1152-.0731-.204136-.1755-.266802-.3092-.062824-.1336-.093524-.2874-.093524-.4608 0-.1726.029909-.3261.091625-.4598.061875-.1329.147013-.2371.256521-.311.11046-.073.23785-.1101.38391-.1101.17882 0 .33232.0494.4605.1489.12739.1005.20794.2332.24165.3982l-.25383.0123c-.02232-.091-.07581-.1649-.15904-.2218-.0834-.0569-.17977-.0855-.28928-.0855-.14337 0-.25842.0581-.34546.1728-.086083.1156-.130235.2674-.130235.456 0 .1896.045895.3413.136725.4551.08989.1138.21063.1708.36239.1708.11236 0 .20778-.0314.28722-.0949.07881-.0636.12929-.1469.14986-.2513l.24908.0048c-.02627.1783-.10207.3215-.22835.4304-.12644.1091-.27915.1631-.45781.1631-.14891 0-.27994-.036-.39515-.108zm.98731.3052c.1736-.1032.30906-.2475.40528-.4333.097-.1857.14511-.4015.14511-.6457 0-.2436-.04811-.4591-.14511-.645-.09622-.1859-.23168-.3298-.40528-.4332-.17454-.1034-.37568-.155-.6034-.155-.22756 0-.42869.0516-.602288.155-.174547.1034-.309058.2473-.406222.4332-.096057.1859-.144164.4014-.144164.645 0 .2442.048107.46.144164.6457.097164.1858.231675.3301.406222.4333.173598.1034.374728.154.602288.154.22772 0 .42886-.0506.6034-.154zm-1.356815.2156c-.217749-.1222-.387549-.2951-.508134-.5185-.1207433-.2248-.180561-.4831-.180561-.7761 0-.2932.0598177-.5517.180561-.7751.120585-.2236.290385-.3966.508134-.5187.218857-.1223.469995-.1829.753415-.1829.28453 0 .53583.0606.75342.1829.21886.1221.38866.2951.5083.5187.12074.2234.18151.4819.18151.7751 0 .293-.06077.5513-.18151.7761-.11964.2234-.28944.3963-.5083.5185-.21759.1223-.46889.183-.75342.183-.28342 0-.534558-.0607-.753415-.183z"/><path d="m60.7962 27.2581h-2.3967c-.366.0078-.5766.2367-.6898.6762-.0025.0075-.0034.0152-.006.0228-.6607 2.1814-2.3658 3.6569-4.6624 3.6569-3.6853 0-5.6126-3.053-5.8918-7.386-.0275-.4262.2157-.6988.6596-.6988h13.0979c.3451-.0015.6262-.2658.6507-.6027.3777-5.2193-1.8607-11.84-8.9587-11.84-5.6792 0-9.224 5.391-9.224 11.6802 0 7.3202 3.787 12.126 9.4639 12.126 3.7392 0 6.3286-1.9637 7.6788-4.4348.45-.8238.7583-1.7046.9338-2.5863.0635-.3191-.1945-.6041-.6553-.6135zm-8.1184-13.1152c3.7278 0 4.8745 3.3226 5.0762 5.5558.0342.3776-.2726.6861-.6731.6861-.0008 0-.0005.0019-.0005.0032 0 .0015.0014.0021.0014.004l-9.0314.0768c-.4201 0-.7436-.3077-.6545-.7257.777-3.6446 2.6996-5.6002 5.2819-5.6002z"/><path d="m116.886 27.2581h-2.397c-.366.0078-.576.2367-.689.6762-.003.0075-.004.0152-.006.0228-.661 2.1814-2.366 3.6569-4.663 3.6569-3.685 0-5.612-3.053-5.891-7.386-.028-.4262.215-.6988.659-.6988h13.098c.345-.0015.626-.2658.65-.6027.378-5.2193-1.86-11.84-8.958-11.84-5.679 0-9.2242 5.391-9.2242 11.6802 0 7.3202 3.7872 12.126 9.4642 12.126 3.739 0 6.328-1.9637 7.679-4.4348.45-.8238.758-1.7046.933-2.5863.064-.3191-.194-.6041-.655-.6135zm-8.118-13.1152c3.728 0 4.874 3.3226 5.076 5.5558.034.3776-.273.6861-.673.6861-.001 0-.001.0019-.001.0032 0 .0015.002.0021.002.004l-9.032.0768c-.42 0-.743-.3077-.654-.7257.777-3.6446 2.699-5.6002 5.282-5.6002z"/><path d="m68.127.695354h-.0009c-.0016-.382907-.3077-.69304992-.6857-.69513275h-2.4138c-.378.00208283-.6842.31222575-.6858.69513275h-.001v33.093246h.001c.0016.3833.3078.6933.6858.6952v.0009h2.4185c.3757-.0052.6794-.3115.681-.6932l.0009-22.886z"/><path d="m75.4396.695354h-.001c-.0016-.382907-.3076-.69304992-.6858-.69513275h-2.4137c-.378.00208283-.6842.31222575-.6861.69513275h-.0007v33.093246h.0007c.0019.3833.3081.6933.6861.6952v.0009h2.4186c.3756-.0052.6793-.3115.6809-.6932h.001v-22.886z"/><path d="m88.9332 11.0864c-3.584 0-5.3966 2.68-5.9601 3.681h-.2399c0-.3174 0-.6355.0381-.9537v-2.1356-10.988754c-.0041-.380504-.3068-.68711822-.6828-.68936126h-2.4144c-.3765.00224304-.6825.31222126-.6841.69528926h-.0019v30.426526c0 .8247-.0276 1.8232-.0584 2.6757.0074.3761.3062.6822.6787.6872h2.0542c.3749-.005.6797-.3116.6811-.6931h.0007c.0193-.8641.0234-1.8448.0234-2.6698h.2438c1.4094 2.3637 3.1797 3.7708 5.8793 3.7708 5.6801 0 8.8595-5.5867 8.8595-11.9019 0-6.588-3.102-11.9043-8.4172-11.9043zm-1.0878 20.4906c-2.817 0-5.0741-4.0855-5.0741-8.4594 0-4.3803 2.097-8.7591 5.2776-8.7591 3.7044 0 5.3542 3.9068 5.3542 8.6322 0 5.1331-1.8533 8.5863-5.5577 8.5863z"/><path d="m137.199 27.2581h-2.397c-.366.0078-.577.2367-.69.6762-.002.0075-.003.0152-.006.0228-.661 2.1814-2.366 3.6569-4.662 3.6569-3.686 0-5.613-3.053-5.892-7.386-.028-.4262.216-.6988.659-.6988h13.098c.345-.0015.627-.2658.651-.6027.378-5.2193-1.861-11.84-8.959-11.84-5.679 0-9.224 5.391-9.224 11.6802 0 7.3202 3.788 12.126 9.464 12.126 3.739 0 6.329-1.9637 7.679-4.4348.45-.8238.758-1.7046.934-2.5863.063-.3191-.195-.6041-.655-.6135zm-8.119-13.1152c3.728 0 4.875 3.3226 5.076 5.5558.035.3776-.272.6861-.673.6861v.0032c0 .0015.001.0021.001.004l-9.031.0768c-.42 0-.744-.3077-.655-.7257.777-3.6446 2.7-5.6002 5.282-5.6002z"/><path d="m40.5221 13.0476c0-.2071-.0003-.5044-.0011-.7857l-.0005-.0776c-.0015-.3781-.3046-.6842-.6774-.6862h-2.2283c-.3728.002-.6764.3081-.6778.6862v.0776 1.6661c0 3.9526.0079 9.5958-.0039 13.5507-.0083 2.7739-.8644 3.839-2.0846 3.961-1.0681.0263-1.8868-.5235-2.3212-1.9399-1.391-4.5343-3.1685-12.623-4.1879-15.3043-.802-2.1085-2.0955-3.1708-4.3925-3.1708-1.9884.0532-3.2735 1.159-4.2888 3.1708-1.7344 3.4287-5.4558 13.1885-7.2294 16.3009-.4398.7718-.7105.9271-1.1315.9433-.6836.025-1.0724-.8332-1.2755-1.3465-.59181-1.4884-1.74892-5.0131-3.05526-8.9812-.93445-2.8385-1.90831-5.904-2.81713-8.6132h-.00158c-.02658-.0794-.05333-.1577-.08055-.2369l-.02674-.0776c-.13008-.3781-.53915-.6842-.91293-.6862h-2.64496c-.372199.002-.5712738.3081-.4442007.6862l.0262692.0776.0805485.2369h-.002373c2.345546 6.9194 5.025796 15.0964 6.285606 18.7739.81434 2.3774 2.4924 3.6236 4.7557 3.6236 2.1556 0 3.7542-1.1007 4.6771-3.0022 1.1923-2.4565 2.2687-5.1418 3.362-7.7199 1.3227-3.1186 2.6358-6.0801 3.7663-8.2897.3425-.5723.662-.651 1.0199-.693.6139.0075.925.3606 1.1513.8337 1.0053 2.1568 3.3542 13.3941 4.5471 15.7413 1.0362 2.0386 2.306 3.0459 4.8281 3.1285.0046 0 .0089.0013.0138.0013 4.0108.0918 5.94-2.7413 5.9758-7.2658.0332-4.3411.011-10.2413-.0034-14.5829z"/></g></svg>