<svg height="300" width="800" xmlns="http://www.w3.org/2000/svg" xmlns:xlink="http://www.w3.org/1999/xlink"><clipPath id="a"><path d="m0 600h600v-600h-600z"/></clipPath><g fill="#98948b"><path d="m0 0v-70.906h34.773v-8.381h-43.834v79.287z" transform="matrix(1.33333 0 0 -1.33333 78.748 62.444)"/><path d="m0 0-8.835-20.274h-9.627l35.565 79.287h9.401l35.453-79.287h-9.854l-8.948 20.274-3.625 8.382-18.009 40.776-17.783-40.776z" transform="matrix(1.33333 0 0 -1.33333 170.575 141.128)"/><g clip-path="url(#a)" transform="matrix(1.33333 0 0 -1.33333 0 550)"><path d="m0 0h-24.187l.061.056v62.524h24.126c7.626 0 16.532-3.545 16.532-13.536 0-8.472-7.323-13.535-14.402-13.535v-8.438c7.079 0 14.402-5.063 14.402-13.536 0-9.99-8.906-13.535-16.532-13.535m15.58 31.29c5.445 3.722 9.334 9.81 9.334 17.754 0 12.905-10.245 21.917-24.914 21.917h-33.187l-.001.001v-79.344h33.188c14.669 0 24.914 9.013 24.914 21.917 0 7.945-3.889 14.033-9.334 17.755" transform="translate(242.936 294.705)"/><path d="m0 0c-17.896 0-32.281-13.932-32.281-31.488 0-17.444 14.385-31.602 32.281-31.602 8.721 0 17.217 3.625 23.446 9.515l5.55-6.004c-7.815-7.362-18.462-12.006-29.448-12.006-22.881 0-41.004 17.669-41.004 40.097 0 22.2 18.35 39.757 41.343 39.757 10.874 0 21.408-4.418 28.997-11.554l-5.438-6.569c-6.116 6.116-14.725 9.854-23.446 9.854" transform="translate(331.853 357.625)"/><path d="m0 0c0-17.556 14.726-31.714 32.396-31.714 17.669 0 32.167 14.158 32.167 31.714 0 17.557-14.498 31.489-32.167 31.489-17.67 0-32.396-13.932-32.396-31.489m73.851 0c0-22.313-18.35-39.983-41.455-39.983-23.221 0-41.57 17.67-41.57 39.983 0 22.314 18.349 39.871 41.57 39.871 23.105 0 41.455-17.557 41.455-39.871" transform="translate(385.185 326.023)"/><path d="m0 0a4.53 4.53 0 1 1 9.06 0 4.53 4.53 0 0 1 -9.06 0" transform="translate(412.993 326.023)"/><path d="m0 0 47.573-64.45v64.45h8.948v-79.287h-9.288l-47.573 64.335v-64.335h-9.061v79.287z" transform="translate(493.188 365.667)"/><path d="m0 0c3.669 0 5.776 1.563 5.776 4.79 0 3.127-2.107 4.621-5.776 4.621h-5.64v-9.411zm5.437-10.771-4.35 7.203c-.34-.034-.713-.034-1.087-.034h-5.64v-7.169h-4.01v23.784h9.65c6.082 0 9.582-2.956 9.582-8.12 0-3.806-1.768-6.49-4.928-7.714l5.335-7.95z" transform="translate(60.479 245.047)"/><path d="m0 0v-3.602h-12.979v-6.421h11.62v-3.602h-11.62v-6.557h13.387v-3.602h-17.396v23.784z" transform="translate(103.665 258.06)"/><path d="m0 0v-20.148h10.294v-3.636h-14.304v23.784z" transform="translate(124.256 258.06)"/><path d="m0 0v-3.602h-12.979v-6.421h11.62v-3.602h-11.62v-6.557h13.387v-3.602h-17.396v23.784z" transform="translate(166.66 258.06)"/><path d="m0 0 7.339-19.333 7.407 19.333h4.179l-9.615-23.784h-4.146l-9.479 23.784z" transform="translate(184.533 258.06)"/><path d="m0 0-4.485 10.567-4.485-10.567zm1.529-3.568h-11.994l-2.277-5.368h-4.179l10.5 23.784h4.111l10.396-23.784h-4.281z" transform="translate(230.13 243.212)"/><path d="m0 0 12.741-17.09v17.09h3.942v-23.784h-3.942l-12.673 17.057v-17.057h-4.01v23.784z" transform="translate(256.6 258.06)"/><path d="m0 0v-3.602h-7.543v-20.182h-4.009v20.182h-7.509v3.602z" transform="translate(307.09 258.06)"/><path d="m0 0c-2.345 0-3.873-.883-3.873-2.48 0-5.199 12.842-2.413 12.809-10.975 0-4.247-3.738-6.863-8.97-6.863-3.737 0-7.272 1.529-9.718 3.772l1.733 3.465c2.447-2.242 5.505-3.465 8.052-3.465 2.786 0 4.452 1.052 4.452 2.887 0 5.301-12.843 2.345-12.843 10.805 0 4.078 3.499 6.625 8.664 6.625 3.091 0 6.116-.984 8.324-2.446l-1.665-3.533c-2.583 1.563-5.164 2.208-6.965 2.208" transform="translate(349.36 254.458)"/><path d="m0 0v-3.602h-7.543v-20.182h-4.009v20.182h-7.509v3.602z" transform="translate(390.507 258.06)"/><path d="m0 0c0-4.723 3.907-8.46 8.562-8.46a8.438 8.438 0 0 1 8.459 8.46c0 4.723-3.804 8.392-8.459 8.392-4.689 0-8.562-3.669-8.562-8.392m21.133 0c0-6.795-5.504-12.062-12.606-12.062-7.1 0-12.604 5.267-12.604 12.062 0 6.829 5.504 11.994 12.604 11.994 7.102 0 12.606-5.199 12.606-11.994" transform="translate(405.9 246.168)"/><path d="m0 0c3.67 0 5.777 1.563 5.777 4.79 0 3.127-2.107 4.621-5.777 4.621h-5.64v-9.411zm5.437-10.771-4.35 7.203c-.339-.034-.713-.034-1.087-.034h-5.64v-7.169h-4.009v23.784h9.649c6.082 0 9.582-2.956 9.582-8.12 0-3.806-1.767-6.49-4.927-7.714l5.335-7.95z" transform="translate(452.245 245.047)"/><path d="m482.451 234.276h-4.009v23.784h4.009z"/><path d="m0 0v-3.602h-12.979v-6.421h11.62v-3.602h-11.62v-6.557h13.387v-3.602h-17.395v23.784z" transform="translate(516.973 258.06)"/><path d="m0 0c-2.346 0-3.874-.883-3.874-2.48 0-5.199 12.843-2.413 12.81-10.975 0-4.247-3.738-6.863-8.971-6.863-3.737 0-7.271 1.529-9.718 3.772l1.733 3.465c2.448-2.242 5.505-3.465 8.053-3.465 2.786 0 4.451 1.052 4.451 2.887 0 5.301-12.843 2.345-12.843 10.805 0 4.078 3.5 6.625 8.664 6.625 3.092 0 6.115-.984 8.324-2.446l-1.664-3.533c-2.583 1.563-5.165 2.208-6.965 2.208" transform="translate(541.064 254.458)"/></g></g></svg>